<svg width="647" height="860" viewBox="0 0 647 860" fill="none" xmlns="http://www.w3.org/2000/svg">
<g filter="url(#filter0_d_92_3)">
<rect x="48" y="75" width="484" height="8.98842" rx="2" fill="#D9D9D9"/>
<g filter="url(#filter1_d_92_3)">
<rect x="524.225" y="75" width="7.7751" height="776" rx="2" fill="#D9D9D9"/>
</g>
<rect x="49" y="75" width="488" height="8.98842" rx="2" fill="#D9D9D9"/>
<g filter="url(#filter2_d_92_3)">
<rect x="529.161" y="75" width="7.83936" height="776" rx="2" fill="#D9D9D9"/>
</g>
<rect x="42" y="74" width="490" height="9" rx="2" fill="#D9D9D9"/>
<g filter="url(#filter3_d_92_3)">
<rect x="524.129" y="74" width="7.87149" height="777" rx="2" fill="#D9D9D9"/>
</g>
<g filter="url(#filter4_d_92_3)">
<rect x="29" y="74" width="498" height="9" rx="2" fill="#D9D9D9"/>
<g filter="url(#filter5_d_92_3)">
<rect x="519" y="74" width="8" height="777" rx="2" fill="#D9D9D9"/>
</g>
</g>
</g>
<rect x="41" y="75" width="484" height="8.98842" rx="2" fill="#D9D9D9"/>
<g filter="url(#filter6_d_92_3)">
<rect x="517.225" y="75" width="7.7751" height="776" rx="2" fill="#D9D9D9"/>
</g>
<rect x="42" y="75" width="488" height="8.98842" rx="2" fill="#D9D9D9"/>
<g filter="url(#filter7_d_92_3)">
<rect x="522.161" y="75" width="7.83936" height="776" rx="2" fill="#D9D9D9"/>
</g>
<rect x="35" y="74" width="490" height="9" rx="2" fill="#D9D9D9"/>
<g filter="url(#filter8_d_92_3)">
<rect x="517.129" y="74" width="7.87149" height="777" rx="2" fill="#D9D9D9"/>
</g>
<g filter="url(#filter9_d_92_3)">
<rect x="22" y="74" width="498" height="9" rx="2" fill="#D9D9D9"/>
<g filter="url(#filter10_d_92_3)">
<rect x="512" y="74" width="8" height="777" rx="2" fill="#D9D9D9"/>
</g>
</g>
<g filter="url(#filter11_d_92_3)">
<rect x="13" y="74" width="505" height="778" rx="3" fill="#857070"/>
</g>
<path d="M182.104 414.372C180.84 414.572 179.471 414.659 177.998 414.633C172.08 414.361 166.933 412.412 162.557 408.785C158.266 405.145 154.754 400.431 152.023 394.643C149.363 388.757 147.492 382.401 146.411 375.574C145.503 369.843 145.438 363.978 146.216 357.98C147.079 351.968 148.626 346.194 150.86 340.656C153.093 335.118 155.883 330.098 159.23 325.593C162.648 320.991 166.46 317.234 170.664 314.322C174.939 311.312 179.479 309.427 184.283 308.666C188.413 308.012 191.875 308.327 194.671 309.612C197.453 310.813 199.647 312.669 201.254 315.179C202.848 317.605 203.892 320.377 204.386 323.495C204.867 326.53 204.806 329.693 204.204 332.985C203.673 336.179 202.646 339.236 201.121 342.156C199.596 345.076 197.612 347.55 195.169 349.578C192.712 351.523 189.84 352.755 186.553 353.276C184.952 353.529 183.142 353.557 181.123 353.358C180.409 353.212 180.032 353.013 179.992 352.76C179.925 352.338 180.397 352.048 181.409 351.887C181.914 351.807 182.3 351.789 182.566 351.834C183.534 351.94 184.439 351.926 185.281 351.792C187.641 351.419 189.797 350.3 191.748 348.435C193.783 346.558 195.492 344.257 196.875 341.532C198.258 338.808 199.228 335.933 199.786 332.907C200.33 329.797 200.382 326.851 199.941 324.07C199.381 320.53 197.917 317.565 195.552 315.175C193.186 312.785 189.681 311.655 185.036 311.786C184.601 311.769 184.131 311.8 183.625 311.88C183.106 311.876 182.636 311.907 182.215 311.974C178.169 312.615 174.381 314.338 170.851 317.143C167.392 319.851 164.32 323.361 161.633 327.675C159.018 331.89 156.875 336.636 155.205 341.912C153.536 347.187 152.418 352.678 151.853 358.383C151.359 363.991 151.545 369.534 152.413 375.012C153.454 381.586 155.116 387.716 157.399 393.402C159.669 399.004 162.592 403.552 166.17 407.046C169.831 410.527 174.18 412.344 179.215 412.497C179.65 412.514 180.078 412.49 180.499 412.423C180.934 412.44 181.32 412.423 181.657 412.369C185.871 411.702 188.676 409.227 190.071 404.945C191.551 400.65 191.837 395.637 190.929 389.906C190.462 386.956 189.729 383.962 188.729 380.924C185.917 381.715 183.145 382.759 180.413 384.055C177.765 385.339 175.144 386.79 172.549 388.411C172.394 388.522 172.19 388.597 171.937 388.638C171.516 388.704 171.145 388.547 170.825 388.166C170.59 387.771 170.426 387.279 170.332 386.689C170.239 386.099 170.279 385.531 170.451 384.985C170.611 384.355 170.972 383.909 171.535 383.647C174.383 381.986 177.283 380.663 180.237 379.677C183.192 378.69 186.228 377.95 189.346 377.456C192.718 376.922 196.178 376.677 199.727 376.719C203.36 376.749 207.082 377.066 210.893 377.672C212.393 377.867 213.189 378.259 213.283 378.849C213.31 379.018 213.07 379.142 212.564 379.222C212.143 379.289 211.28 379.296 209.976 379.243C207.496 378.859 205.007 378.691 202.509 378.741C200.096 378.778 197.709 378.983 195.349 379.357C194.507 379.49 193.67 379.666 192.841 379.884C191.998 380.017 191.162 380.193 190.333 380.411C192.837 384.766 194.416 389.008 195.07 393.138C195.951 398.701 195.19 403.444 192.788 407.366C190.385 411.289 186.824 413.624 182.104 414.372ZM218.153 391.556C217.057 391.729 216.043 391.328 215.111 390.353C214.263 389.364 213.688 387.641 213.385 385.183C213.198 384.003 213.228 382.011 213.475 379.207C213.709 376.319 213.938 373.129 214.163 369.638C214.472 366.133 214.667 362.733 214.75 359.437C214.917 356.127 214.84 353.461 214.52 351.438C214.373 350.511 214.169 349.766 213.907 349.202C213.631 348.555 213.157 348.285 212.482 348.391C211.977 348.471 211.553 348.798 211.212 349.37C210.857 349.858 210.502 350.346 210.148 350.835C209.678 351.687 209.401 352.119 209.317 352.133C209.232 352.146 209.17 352.026 209.13 351.773C208.97 350.762 209.176 349.606 209.747 348.306C210.39 346.908 211.259 346.123 212.355 345.949C213.703 345.736 214.779 346.256 215.583 347.511C216.373 348.682 216.955 350.448 217.329 352.808C217.743 355.42 217.915 358.417 217.846 361.797C217.776 365.178 217.631 368.354 217.411 371.327C217.287 372.729 217.253 374.419 217.307 376.397C217.361 378.376 217.535 380.292 217.829 382.147C218.082 383.748 218.422 385.076 218.849 386.132C219.346 387.09 220.016 387.502 220.859 387.369C221.533 387.262 222.274 386.756 223.081 385.851C223.959 384.848 224.918 383.27 225.96 381.118C227.471 378.114 228.712 374.764 229.681 371.068C230.722 367.274 231.69 363.838 232.585 360.759C232.903 359.499 233.442 358.809 234.201 358.689C236.139 358.382 237.275 359.282 237.609 361.389C237.863 362.99 237.93 365.053 237.811 367.577C237.764 370.004 237.914 372.313 238.261 374.504C238.888 378.465 239.96 380.326 241.477 380.086C242.236 379.966 242.921 379.382 243.533 378.335C244.215 377.19 244.586 376.526 244.643 376.344C245.055 375.674 245.472 375.306 245.894 375.239C246.399 375.159 246.699 375.414 246.792 376.004C246.966 377.1 246.521 378.38 245.457 379.844C244.393 381.309 243.144 382.154 241.711 382.381C240.363 382.595 239.194 382.305 238.204 381.511C237.285 380.62 236.362 379.427 235.434 377.933C234.369 376.114 233.722 374.489 233.495 373.056C233.268 371.623 232.964 370.246 232.582 368.924C232.312 371.04 231.641 373.349 230.569 375.852C229.581 378.341 228.369 380.78 226.932 383.167C225.567 385.457 224.1 387.374 222.53 388.919C220.96 390.463 219.501 391.342 218.153 391.556ZM259.249 387.768C256.215 388.249 253.28 386.899 250.443 383.72C247.678 380.443 245.681 374.927 244.453 367.173C243.652 362.116 243.643 357.971 244.427 354.736C245.197 351.417 246.396 348.895 248.024 347.168C249.651 345.442 251.307 344.445 252.993 344.178C254.679 343.911 256.205 344.274 257.572 345.267C258.925 346.176 259.769 347.684 260.103 349.791C260.423 351.814 260.173 354.057 259.354 356.519C258.521 358.897 257.409 361.147 256.017 363.268C254.696 365.292 253.281 366.725 251.773 367.569C251.463 367.791 251.055 367.942 250.549 368.022C250.212 368.075 250.023 367.976 249.983 367.723C249.876 367.049 250.43 366.183 251.645 365.127C253.144 363.68 254.465 361.656 255.609 359.056C256.739 356.372 257.157 354.102 256.863 352.248C256.69 351.152 256.303 350.35 255.704 349.84C255.092 349.246 254.448 349.002 253.774 349.109C252.51 349.309 251.279 350.541 250.082 352.804C248.957 354.969 248.437 358.507 248.524 363.418C248.569 364.793 248.607 366.127 248.639 367.417C248.741 368.611 248.886 369.797 249.073 370.977C249.821 375.697 251.124 379.292 252.984 381.762C254.831 384.148 256.934 385.154 259.294 384.78C261.317 384.46 263.406 382.92 265.56 380.159C267.702 377.315 269.587 373.128 271.217 367.6C271.594 366.158 272.161 365.377 272.92 365.256C273.425 365.176 273.732 365.473 273.838 366.148C273.932 366.738 273.863 367.397 273.633 368.124C272.296 373.865 270.302 378.458 267.651 381.902C264.999 385.345 262.199 387.301 259.249 387.768ZM276.262 387.795C274.66 388.049 273.491 387.759 272.754 386.925C272.337 386.473 272.082 385.952 271.988 385.362C271.882 384.687 272.05 383.84 272.493 382.819C272.936 381.799 273.856 380.789 275.253 379.79C275.408 379.679 275.98 379.2 276.969 378.352C278.042 377.491 278.699 376.998 278.938 376.874C278.139 375.1 276.96 373.386 275.402 371.732C273.831 369.994 272.346 367.982 270.948 365.698C269.549 363.414 268.647 360.447 268.242 356.796C267.863 353.314 268.316 350.175 269.601 347.379C270.886 344.584 272.709 342.179 275.068 340.164C277.511 338.135 280.119 336.599 282.891 335.555C283.539 335.28 284.235 335.04 284.98 334.835C285.725 334.631 286.477 334.469 287.236 334.348C289.343 334.015 291.237 333.974 292.919 334.226C294.684 334.465 296.251 335.081 297.618 336.074C299.069 337.053 299.908 338.26 300.135 339.692C300.281 340.619 300.133 341.593 299.69 342.614C299.575 342.978 299.376 343.355 299.092 343.745C298.808 344.136 298.413 344.371 297.908 344.451C297.571 344.505 297.362 344.279 297.282 343.773C297.215 343.351 297.213 342.79 297.274 342.089C297.42 341.375 297.522 340.927 297.58 340.745C297.637 340.563 297.633 340.261 297.566 339.84C297.419 338.913 297.046 338.194 296.447 337.685C295.737 337.019 294.736 336.703 293.446 336.734C292.239 336.753 291.13 336.842 290.118 337.002C287.169 337.469 284.388 338.731 281.776 340.786C279.164 342.841 276.962 345.306 275.171 348.182C273.451 350.96 272.39 353.806 271.988 356.721C271.855 357.52 271.807 358.305 271.843 359.077C271.865 359.764 271.93 360.445 272.037 361.12C272.504 364.07 273.625 366.786 275.401 369.27C277.177 371.753 278.75 374.053 280.122 376.168C282.282 374.53 284.249 373.311 286.023 372.512C286.263 372.388 286.467 372.312 286.635 372.285C286.888 372.245 287.057 372.219 287.141 372.205C287.562 372.139 287.793 372.232 287.833 372.485C287.9 372.906 287.419 373.414 286.39 374.009C286.15 374.133 285.558 374.486 284.614 375.068C283.669 375.65 282.54 376.433 281.228 377.419C281.822 378.448 282.2 379.468 282.36 380.479C282.52 381.49 282.421 382.5 282.062 383.507C281.703 384.514 280.939 385.413 279.768 386.203C278.61 387.078 277.442 387.608 276.262 387.795ZM276.1 384.322C276.278 384.898 276.677 384.965 277.298 384.521C278.003 384.063 278.668 383.353 279.293 382.39C279.919 381.427 280.164 380.524 280.031 379.682C280.004 379.513 279.977 379.345 279.951 379.176C279.995 378.91 279.955 378.657 279.831 378.417C278.686 379.376 277.724 380.393 276.944 381.467C276.15 382.456 275.869 383.408 276.1 384.322ZM315.528 382.742C314.432 382.916 313.571 382.663 312.945 381.985C312.417 381.378 312.1 380.737 311.993 380.062C311.779 378.714 312.149 377.23 313.102 375.61C313.443 375.038 313.927 374.27 314.552 373.307C315.163 372.26 315.598 371.456 315.855 370.897C314.519 369.554 312.824 368.397 310.769 367.426C308.715 366.456 306.649 365.141 304.572 363.483C302.69 361.967 301.001 360.031 299.505 357.676C297.996 355.237 297.054 352.837 296.68 350.478C296.24 347.696 296.451 344.941 297.315 342.212C298.179 339.484 299.391 337.045 300.952 334.898C302.654 332.554 304.634 330.599 306.891 329.032C309.135 327.381 311.564 326.348 314.176 325.934C315.946 325.654 317.741 325.802 319.56 326.378C321.379 326.954 322.442 328.211 322.749 330.149C323.11 332.425 322.784 333.643 321.773 333.803C321.351 333.87 320.99 333.495 320.688 332.679C320.536 332.271 320.428 331.856 320.361 331.435C320.281 330.929 320.227 330.592 320.201 330.423C320.067 329.58 319.574 328.924 318.722 328.454C317.857 327.9 316.961 327.696 316.034 327.843C314.095 328.15 312.066 329.249 309.947 331.14C307.827 333.031 306.127 335.115 304.846 337.391C303.578 339.752 302.652 342.361 302.068 345.218C301.47 347.991 301.365 350.6 301.752 353.044C302.233 356.078 303.321 358.584 305.016 360.562C306.712 362.539 308.62 364.224 310.742 365.616C312.947 366.995 314.935 368.365 316.706 369.726C317.318 368.679 317.978 367.667 318.687 366.69C319.481 365.701 320.217 364.893 320.896 364.267C321.503 363.739 321.933 363.455 322.186 363.415C322.439 363.375 322.585 363.481 322.625 363.734C322.692 364.155 322.393 364.721 321.728 365.431C321.586 365.627 321.16 366.212 320.451 367.189C319.813 368.067 319.039 369.183 318.13 370.537C318.925 371.189 319.599 371.903 320.154 372.679C320.709 373.455 321.067 374.349 321.227 375.36C321.441 376.708 320.902 378.219 319.612 379.892C318.322 381.565 316.96 382.515 315.528 382.742ZM316.378 379.109C316.968 379.015 317.429 378.381 317.761 377.205C318.191 376.1 318.325 375.042 318.165 374.031C318.085 373.525 317.928 373.075 317.692 372.68C317.457 372.285 317.29 372.052 317.193 371.981C316.652 372.931 316.167 373.958 315.737 375.063C315.378 376.07 315.259 376.953 315.379 377.712C315.539 378.723 315.872 379.189 316.378 379.109Z" fill="white"/>
<path d="M249.682 259.327C249.278 259.192 249.184 258.801 249.4 258.153C249.59 257.587 250.022 256.967 250.698 256.293C251.373 255.619 252.116 255.148 252.925 254.879C253.708 254.691 254.545 254.476 255.436 254.234C256.218 254.046 256.988 253.898 257.743 253.791C257.717 253.602 257.771 253.305 257.906 252.901C258.123 252.253 258.434 251.997 258.838 252.133C259.081 252.214 259.35 252.619 259.646 253.348C267.123 251.98 274.126 251.489 280.656 251.874L280.778 251.51C281.536 249.244 281.633 246.937 281.069 244.589C280.586 242.268 279.792 239.798 278.689 237.179C277.586 234.56 276.509 231.725 275.46 228.675C274.492 225.652 273.795 222.359 273.367 218.796C273.047 215.18 273.389 211.2 274.392 206.857C274.474 206.344 274.596 205.845 274.758 205.359C274.921 204.874 275.083 204.388 275.246 203.903C276.979 198.724 279.722 194.423 283.477 191C287.232 187.577 291.472 184.991 296.196 183.243C301.028 181.44 305.914 180.42 310.852 180.183C314.792 179.972 318.988 180.611 323.438 182.1C325.057 182.641 326.554 183.277 327.929 184.007C331.947 186.252 334.468 188.67 335.49 191.261C336.513 193.853 336.685 196.16 336.008 198.183C335.494 199.721 334.629 200.961 333.414 201.904C332.198 202.847 331.429 203.265 331.105 203.157C330.862 203.075 330.795 202.873 330.903 202.549C330.958 202.387 331.079 202.158 331.268 201.861C331.566 201.511 331.822 201.147 332.039 200.769C332.498 200.203 332.85 199.691 333.093 199.233C333.336 198.774 333.539 198.302 333.702 197.817C334.568 195.227 333.991 192.919 331.969 190.893C330.055 188.813 327.763 187.326 325.093 186.433C324.769 186.324 324.405 186.203 324.001 186.067C323.596 185.932 323.178 185.837 322.746 185.782C317.404 184.805 311.966 185.055 306.433 186.533C300.899 188.011 295.742 190.649 290.962 194.449C286.289 198.194 282.425 203.02 279.369 208.927C279.098 209.466 278.828 210.005 278.557 210.545C278.368 211.111 278.192 211.637 278.029 212.123C276.757 215.926 276.402 219.677 276.964 223.374C277.554 226.991 278.494 230.5 279.786 233.901C281.158 237.33 282.436 240.637 283.62 243.823C284.83 246.927 285.394 249.815 285.31 252.487C287.037 252.705 288.682 253.03 290.247 253.464C291.812 253.897 293.309 254.398 294.738 254.967C295.817 255.507 296.275 256.021 296.113 256.506C295.95 256.992 295.06 256.964 293.441 256.422C292.308 256.043 291.027 255.704 289.597 255.406C288.194 255.027 286.657 254.782 284.984 254.672C284.983 254.942 284.942 255.198 284.861 255.441C284.78 255.684 284.712 255.886 284.658 256.048C284.387 256.857 283.982 257.666 283.441 258.475C281.306 261.36 278.606 263.111 275.34 263.728C272.074 264.345 269.025 264.18 266.192 263.232C263.441 262.311 261.324 260.973 259.842 259.218C259.303 258.677 258.845 258.029 258.468 257.273C257.227 257.488 255.958 257.783 254.662 258.159C253.286 258.508 251.949 258.871 250.654 259.248C250.249 259.382 249.925 259.409 249.682 259.327ZM265.831 260.681C268.178 261.467 270.741 261.47 273.522 260.69C276.275 259.992 278.355 257.943 279.762 254.545C273.798 254.619 267.429 255.367 260.654 256.79C261.516 258.518 263.241 259.815 265.831 260.681ZM301.002 268.535C298.089 267.561 296.109 265.008 295.061 260.878C294.121 256.695 294.897 250.88 297.388 243.435C299.013 238.58 300.919 234.899 303.108 232.392C305.324 229.804 307.552 228.12 309.792 227.34C312.033 226.56 313.963 226.44 315.581 226.982C317.199 227.523 318.386 228.55 319.139 230.062C319.92 231.493 319.972 233.22 319.295 235.243C318.646 237.186 317.389 239.06 315.525 240.866C313.688 242.59 311.662 244.072 309.448 245.311C307.342 246.496 305.425 247.115 303.698 247.167C303.32 247.22 302.889 247.166 302.403 247.003C302.079 246.895 301.958 246.719 302.039 246.477C302.256 245.829 303.147 245.317 304.713 244.941C306.71 244.35 308.816 243.165 311.031 241.387C313.273 239.527 314.692 237.707 315.287 235.927C315.639 234.875 315.667 233.985 315.371 233.256C315.103 232.446 314.644 231.933 313.997 231.716C312.783 231.31 311.123 231.834 309.017 233.289C307.018 234.69 304.923 237.588 302.733 241.984C302.138 243.225 301.556 244.425 300.988 245.585C300.528 246.691 300.109 247.81 299.729 248.943C298.213 253.475 297.71 257.266 298.219 260.315C298.755 263.284 300.156 265.148 302.422 265.906C304.364 266.556 306.928 266.154 310.114 264.7C313.327 263.166 316.933 260.323 320.931 256.172C321.931 255.067 322.795 254.636 323.523 254.88C324.009 255.042 324.143 255.447 323.927 256.094C323.737 256.661 323.372 257.214 322.832 257.753C318.995 262.228 315.106 265.381 311.164 267.211C307.222 269.042 303.835 269.483 301.002 268.535ZM339.997 281.583C338.945 281.231 338.231 280.272 337.855 278.706C337.506 277.06 337.967 274.335 339.24 270.532C340.242 267.537 341.581 264.341 343.258 260.943C344.962 257.464 346.693 254.039 348.451 250.668C350.29 247.324 351.912 244.357 353.318 241.768C354.752 239.098 355.685 237.116 356.118 235.821C356.876 233.555 356.567 232.192 355.192 231.732C353.897 231.299 352.345 231.499 350.536 232.334C348.808 233.195 347.026 234.354 345.189 235.809C343.433 237.291 341.813 238.773 340.327 240.256C338.949 241.684 338.003 242.763 337.49 243.491C335.301 246.268 333.436 249.153 331.894 252.147C330.38 255.059 329.067 258.174 327.957 261.492C327.497 262.868 327.064 264.298 326.657 265.781C326.332 267.292 325.952 268.83 325.518 270.395C325.41 271.258 324.828 272.188 323.775 273.185C322.829 274.129 321.952 274.465 321.143 274.194C320.576 274.005 320.212 273.478 320.052 272.615C319.891 271.751 319.824 271.009 319.852 270.388C319.853 269.309 319.949 268.216 320.139 267.11C320.356 265.923 320.519 264.897 320.628 264.034C321.172 260.527 321.769 256.992 322.421 253.431C323.1 249.789 323.536 246.2 323.728 242.666C323.784 241.694 323.771 240.655 323.692 239.549C323.72 238.389 323.478 237.363 322.966 236.472C322.859 236.256 322.67 236.013 322.401 235.743C322.158 235.391 322.064 235.135 322.118 234.973C322.226 234.649 322.726 234.637 323.616 234.934C324.587 235.259 325.396 236.07 326.042 237.366C326.688 238.662 327.145 240.254 327.413 242.144C327.707 244.492 327.798 246.907 327.688 249.389C327.658 251.899 327.615 253.909 327.559 255.42C329.02 252.67 330.412 250.256 331.737 248.18C332.953 246.427 334.493 244.378 336.358 242.032C338.25 239.606 340.357 237.342 342.68 235.239C345.03 233.056 347.501 231.453 350.093 230.431C352.712 229.328 355.356 229.223 358.027 230.116C361.911 231.416 363.095 234.332 361.579 238.863C360.794 241.21 359.523 243.664 357.766 246.226C356.036 248.706 354.293 250.958 352.537 252.98C350.861 255.028 349.713 256.444 349.091 257.226C348.307 258.223 347.348 259.612 346.213 261.392C345.158 263.198 344.117 265.1 343.089 267.095C342.143 269.118 341.371 271.02 340.776 272.8C340.261 274.338 339.99 275.686 339.962 276.847C340.041 277.953 340.486 278.642 341.295 278.913C342.104 279.183 342.954 279.063 343.845 278.551C344.764 277.959 345.533 277.406 346.154 276.894C346.857 276.409 347.14 276.369 347.005 276.774C346.76 278.042 345.855 279.269 344.288 280.454C342.803 281.667 341.372 282.043 339.997 281.583ZM353.585 305.971C352.776 305.7 352.102 304.89 351.564 303.54C351.08 302.298 350.771 300.665 350.639 298.641C350.4 295.322 350.579 291.962 351.177 288.563C351.747 285.244 352.574 281.967 353.657 278.73C354.848 275.169 356.255 271.771 357.878 268.534C359.501 265.298 361.056 262.399 362.543 259.837C363.597 258.03 364.773 256.129 366.071 254.134C367.368 252.138 368.476 250.574 369.395 249.442C368.883 249.361 368.019 249.387 366.805 249.52C365.59 249.654 364.335 249.774 363.04 249.88C361.825 250.014 360.813 249.945 360.004 249.674C358.79 249.268 358.414 248.377 358.874 247.001C359.118 246.273 359.577 245.707 360.252 245.303C361.008 244.926 361.845 244.711 362.762 244.658C364.625 244.471 366.581 244.541 368.631 244.867C370.709 245.112 372.139 245.141 372.922 244.953L378.758 237.998C379.353 237.297 380.353 236.191 381.757 234.682C383.27 233.119 384.945 231.474 386.782 229.749C388.7 228.052 390.51 226.542 392.211 225.222C393.535 224.225 394.723 223.498 395.776 223.04C396.856 222.502 397.881 222.395 398.852 222.72C400.309 223.207 400.848 224.018 400.469 225.151C400.252 225.798 399.644 226.674 398.644 227.78C397.726 228.912 396.226 230.3 394.147 231.944C391.797 233.857 389.406 235.757 386.976 237.643C384.653 239.475 382.492 241.496 380.492 243.707C380.303 244.004 379.925 244.462 379.358 245.082C378.898 245.648 378.56 245.985 378.344 246.093L380.894 246.541C381.568 246.676 382.31 246.88 383.12 247.15C383.956 247.34 384.86 247.598 385.831 247.923C387.206 248.383 388.474 248.897 389.634 249.465C390.901 249.979 391.886 250.534 392.587 251.128C392.937 251.425 393.234 251.749 393.476 252.1C393.827 252.398 393.975 252.627 393.921 252.789C393.812 253.113 392.706 252.923 390.602 252.219C389.388 251.812 387.581 251.433 385.179 251.079C382.859 250.753 380.134 250.561 377.004 250.503C375.493 250.447 374.372 250.703 373.643 251.268C372.914 251.834 371.684 253.357 369.955 255.838C367.279 259.802 364.9 263.685 362.817 267.487C360.762 271.209 358.842 275.066 357.057 279.057C356.705 279.84 356.34 280.662 355.961 281.525C355.663 282.415 355.338 283.386 354.986 284.438C354.065 287.19 353.347 290.144 352.831 293.301C352.395 296.484 352.338 299.345 352.659 301.881C352.739 302.448 352.833 302.975 352.941 303.46C353.129 303.973 353.398 304.378 353.749 304.676C354.234 305.108 354.422 305.486 354.314 305.81C354.233 306.052 353.99 306.106 353.585 305.971ZM380.188 295.03C377.274 294.056 375.294 291.503 374.246 287.373C373.306 283.19 374.082 277.375 376.573 269.93C378.198 265.075 380.104 261.394 382.293 258.887C384.509 256.299 386.737 254.615 388.977 253.835C391.218 253.055 393.148 252.935 394.766 253.477C396.384 254.018 397.571 255.045 398.325 256.557C399.105 257.988 399.157 259.715 398.481 261.738C397.831 263.681 396.574 265.555 394.71 267.36C392.873 269.085 390.847 270.567 388.633 271.806C386.527 272.991 384.61 273.609 382.883 273.661C382.505 273.715 382.074 273.661 381.588 273.498C381.264 273.39 381.143 273.214 381.224 272.971C381.441 272.324 382.332 271.812 383.898 271.436C385.895 270.845 388.001 269.66 390.216 267.882C392.458 266.022 393.877 264.202 394.473 262.422C394.825 261.37 394.853 260.479 394.557 259.751C394.288 258.941 393.829 258.427 393.182 258.211C391.968 257.805 390.308 258.329 388.202 259.784C386.203 261.185 384.108 264.083 381.918 268.479C381.323 269.72 380.741 270.92 380.173 272.08C379.713 273.186 379.294 274.305 378.914 275.438C377.398 279.97 376.895 283.76 377.404 286.81C377.94 289.779 379.341 291.643 381.607 292.401C383.549 293.051 386.113 292.649 389.299 291.195C392.512 289.661 396.118 286.818 400.116 282.667C401.116 281.562 401.98 281.131 402.708 281.375C403.194 281.537 403.328 281.942 403.112 282.589C402.922 283.156 402.557 283.709 402.017 284.248C398.18 288.723 394.291 291.876 390.349 293.706C386.407 295.537 383.02 295.978 380.188 295.03ZM419.182 308.078C418.13 307.726 417.416 306.767 417.04 305.201C416.691 303.555 417.153 300.83 418.425 297.026C419.427 294.032 420.766 290.836 422.443 287.438C424.147 283.959 425.878 280.534 427.636 277.163C429.475 273.819 431.097 270.852 432.503 268.263C433.937 265.593 434.87 263.611 435.303 262.316C436.061 260.05 435.752 258.687 434.377 258.227C433.082 257.794 431.53 257.994 429.721 258.829C427.993 259.69 426.211 260.849 424.374 262.304C422.619 263.786 420.998 265.268 419.512 266.751C418.134 268.179 417.188 269.258 416.675 269.986C414.486 272.763 412.621 275.648 411.079 278.642C409.565 281.554 408.252 284.669 407.142 287.987C406.682 289.363 406.249 290.793 405.842 292.276C405.517 293.787 405.137 295.325 404.704 296.889C404.595 297.753 404.013 298.683 402.96 299.68C402.014 300.624 401.137 300.96 400.328 300.689C399.761 300.5 399.398 299.973 399.237 299.11C399.076 298.246 399.009 297.504 399.037 296.883C399.038 295.804 399.134 294.711 399.324 293.605C399.541 292.418 399.704 291.392 399.813 290.529C400.357 287.022 400.954 283.487 401.606 279.926C402.285 276.284 402.721 272.695 402.914 269.161C402.969 268.189 402.956 267.15 402.877 266.044C402.905 264.883 402.663 263.858 402.151 262.967C402.044 262.751 401.855 262.508 401.586 262.237C401.343 261.886 401.249 261.63 401.303 261.468C401.411 261.144 401.911 261.131 402.801 261.429C403.772 261.754 404.581 262.565 405.227 263.861C405.873 265.157 406.33 266.749 406.598 268.639C406.892 270.987 406.983 273.402 406.873 275.884C406.843 278.394 406.8 280.404 406.744 281.915C408.205 279.164 409.597 276.751 410.922 274.675C412.138 272.922 413.679 270.873 415.543 268.527C417.435 266.101 419.542 263.836 421.865 261.734C424.215 259.551 426.686 257.948 429.278 256.926C431.897 255.823 434.541 255.718 437.212 256.611C441.096 257.911 442.28 260.826 440.764 265.358C439.979 267.705 438.708 270.159 436.951 272.721C435.221 275.201 433.478 277.453 431.722 279.474C430.046 281.523 428.898 282.939 428.276 283.721C427.493 284.718 426.533 286.107 425.398 287.887C424.343 289.693 423.302 291.595 422.274 293.59C421.328 295.613 420.556 297.515 419.961 299.295C419.446 300.833 419.175 302.181 419.147 303.342C419.226 304.448 419.671 305.137 420.48 305.408C421.289 305.678 422.139 305.558 423.03 305.046C423.949 304.454 424.718 303.901 425.34 303.389C426.042 302.904 426.325 302.864 426.19 303.269C425.945 304.537 425.04 305.764 423.474 306.949C421.988 308.162 420.557 308.538 419.182 308.078ZM433.844 313.928C431.821 313.251 430.284 311.927 429.234 309.956C428.238 308.093 428.308 305.462 429.445 302.064C430.041 300.283 431.136 298.22 432.731 295.874C434.353 293.447 436.258 290.981 438.447 288.473C440.716 285.993 443.08 283.77 445.538 281.803C447.996 279.836 450.385 278.341 452.707 277.318C455.029 276.295 457.04 276.068 458.739 276.637C460.115 277.097 460.924 277.907 461.165 279.068C461.488 280.256 461.459 281.416 461.08 282.549C460.755 283.52 460.255 284.343 459.58 285.016C459.012 285.636 458.405 285.838 457.758 285.621C457.11 285.405 456.719 284.959 456.585 284.284C456.559 283.556 456.519 282.868 456.466 282.22C456.521 281.518 456.184 281.046 455.456 280.802C453.999 280.315 452.218 280.798 450.111 282.253C448.032 283.627 445.898 285.568 443.709 288.075C441.521 290.582 439.548 293.251 437.79 296.082C436.033 298.914 434.762 301.503 433.977 303.85C433.3 305.873 433.042 307.451 433.202 308.585C433.471 309.664 434.334 310.448 435.79 310.935C437.651 311.558 439.608 311.628 441.659 311.144C443.819 310.607 445.897 309.773 447.895 308.642C449.894 307.511 451.622 306.379 453.08 305.248C454.62 304.143 455.714 303.294 456.362 302.701C457.956 301.165 459.036 300.492 459.602 300.681C459.845 300.762 459.858 301.127 459.642 301.774C459.371 302.583 458.938 303.338 458.344 304.039C457.776 304.659 457.223 305.239 456.682 305.778C454.737 307.827 452.428 309.618 449.755 311.153C447.108 312.608 444.382 313.63 441.575 314.22C438.849 314.838 436.272 314.741 433.844 313.928ZM461.151 322.12C458.237 321.145 456.257 318.593 455.209 314.463C454.269 310.28 455.045 304.465 457.536 297.02C459.161 292.165 461.067 288.484 463.256 285.977C465.472 283.388 467.7 281.704 469.941 280.924C472.181 280.144 474.111 280.025 475.729 280.567C477.348 281.108 478.534 282.135 479.288 283.647C480.069 285.078 480.121 286.805 479.444 288.828C478.794 290.77 477.537 292.644 475.673 294.45C473.836 296.175 471.81 297.657 469.596 298.896C467.49 300.081 465.574 300.699 463.846 300.751C463.469 300.805 463.037 300.75 462.551 300.588C462.228 300.48 462.106 300.304 462.188 300.061C462.404 299.414 463.295 298.902 464.861 298.526C466.858 297.935 468.965 296.75 471.179 294.971C473.421 293.112 474.84 291.292 475.436 289.512C475.788 288.46 475.816 287.569 475.52 286.84C475.251 286.031 474.793 285.517 474.145 285.301C472.931 284.895 471.271 285.419 469.165 286.874C467.166 288.275 465.072 291.173 462.881 295.569C462.286 296.81 461.704 298.01 461.136 299.17C460.676 300.276 460.257 301.395 459.878 302.528C458.361 307.06 457.858 310.85 458.367 313.9C458.903 316.869 460.304 318.733 462.57 319.491C464.513 320.141 467.077 319.739 470.262 318.285C473.475 316.751 477.081 313.908 481.079 309.757C482.079 308.652 482.943 308.221 483.671 308.465C484.157 308.627 484.291 309.032 484.075 309.679C483.885 310.246 483.52 310.799 482.98 311.338C479.143 315.813 475.254 318.966 471.312 320.796C467.37 322.627 463.983 323.068 461.151 322.12Z" fill="white"/>
<path d="M117.401 245.109C114.804 245.953 111.875 246.052 108.615 245.407C105.436 244.735 101.994 243.116 98.2891 240.552C95.3636 238.452 92.8206 235.734 90.6601 232.398C88.526 229.144 86.892 225.772 85.7581 222.282C85.178 220.496 84.7327 218.712 84.4225 216.929C84.0594 214.983 83.8608 212.715 83.8265 210.124C83.8733 207.506 84.052 205.295 84.3626 203.489C84.4478 202.923 84.6416 202.277 84.944 201.551C85.2463 200.824 85.5192 200.422 85.7627 200.343C85.8439 200.316 85.8976 200.344 85.924 200.425C85.9504 200.506 85.8621 201.477 85.659 203.337C84.9486 208.054 85.3976 212.888 87.0062 217.839C88.4565 222.302 90.5703 226.461 93.3475 230.314C96.1795 234.059 99.2328 237.105 102.507 239.45C105.648 241.66 108.484 243.071 111.016 243.684C113.548 244.297 115.828 244.274 117.857 243.615C120.779 242.665 123.102 240.565 124.827 237.313C126.578 234.142 127.699 230.413 128.191 226.126C128.591 223.214 128.537 219.598 128.03 215.276C127.497 210.873 126.643 206.037 125.469 200.765C124.294 195.494 122.796 190.194 120.975 184.864L120.619 183.768C118.174 185.909 115.889 188.266 113.765 190.84C111.695 193.307 109.773 195.951 107.997 198.771C107.833 199.093 107.629 199.294 107.386 199.373C106.899 199.532 106.4 199.379 105.891 198.917C105.356 198.373 104.996 197.817 104.811 197.249C104.495 196.275 104.568 195.534 105.03 195.024C107.104 192.018 109.337 189.363 111.729 187.06C114.203 184.731 116.849 182.66 119.67 180.847C117.874 175.598 115.713 170.603 113.185 165.861C110.739 161.093 108.127 156.782 105.35 152.929C102.654 149.05 100.006 145.872 97.4075 143.397L97.2462 143.315C91.8351 145.163 86.7445 147.445 81.9744 150.161C77.2591 152.77 73.2427 155.735 69.9253 159.056C66.5815 162.296 64.2338 165.84 62.8823 169.689C61.5856 173.43 61.6228 177.411 62.994 181.631C63.5742 183.416 64.2771 185.027 65.1027 186.464C65.9831 187.793 67.0411 188.84 68.2766 189.605C68.9218 189.933 69.3103 190.301 69.4422 190.706C69.6004 191.193 69.436 191.516 68.9491 191.674C68.4621 191.832 67.8829 191.706 67.2114 191.297C65.3043 190.122 63.8315 188.626 62.7928 186.81C61.673 185.021 60.7967 183.152 60.1638 181.204C58.8717 177.228 58.6305 173.448 59.4403 169.865C60.3312 166.256 61.9353 162.908 64.2525 159.822C66.6245 156.629 69.4256 153.79 72.6557 151.305C75.8595 148.739 79.2093 146.484 82.7052 144.54C86.2822 142.57 89.6401 141.031 92.7789 139.921C91.2208 138.992 89.9152 138.564 88.8622 138.637C87.864 138.602 87.0129 138.744 86.3089 139.063C85.6596 139.274 85.0388 139.296 84.4464 139.129C84.0426 138.991 83.788 138.76 83.6825 138.435C83.4189 137.624 84.342 136.875 86.4521 136.19C87.9941 135.689 89.8708 135.528 92.0823 135.706C94.3485 135.777 96.6097 136.523 98.8657 137.944C102.625 136.812 106.923 135.819 111.76 134.965C116.597 134.111 121.485 133.69 126.423 133.7C131.361 133.711 135.903 134.433 140.048 135.868C144.166 137.221 147.373 139.634 149.667 143.106C149.828 143.323 149.987 143.675 150.145 144.162C150.382 144.892 150.298 145.323 149.892 145.455C149.486 145.587 148.922 145.232 148.2 144.39C146.253 141.434 142.962 139.452 138.328 138.446C133.694 137.439 128.285 137.222 122.101 137.796C115.972 138.262 109.675 139.456 103.211 141.377C105.97 144.069 108.549 147.448 110.947 151.515C113.426 155.554 115.7 159.93 117.769 164.641C119.893 169.244 121.8 173.873 123.492 178.528C125.688 177.276 127.976 176.174 130.358 175.22C132.714 174.186 135.149 173.26 137.665 172.442C138.315 172.231 138.922 172.168 139.488 172.254C140.028 172.258 140.324 172.341 140.377 172.503C140.535 172.99 139.6 173.563 137.571 174.223C132.783 175.778 128.34 177.984 124.244 180.841C124.507 181.652 124.784 182.505 125.074 183.397C125.446 184.264 125.763 185.103 126.027 185.914C127.24 189.647 128.226 193.096 128.984 196.259C129.797 199.314 130.426 201.802 130.87 203.721C132.172 209.937 132.477 215.985 131.785 221.862C131.093 227.74 129.49 232.747 126.976 236.884C124.569 241.075 121.377 243.817 117.401 245.109ZM152.618 166.642C151.887 166.879 151.241 166.685 150.679 166.06C150.172 165.328 149.866 164.799 149.76 164.475C149.338 163.176 149.308 161.84 149.669 160.467C150.085 158.986 150.767 158.046 151.715 157.649L152.08 157.53C153.054 157.214 153.782 157.246 154.265 157.628C154.802 157.902 155.177 158.363 155.388 159.012C155.783 160.23 155.691 161.74 155.11 163.544C154.504 165.266 153.673 166.299 152.618 166.642ZM160.57 212.24C157.81 213.137 155.601 212.688 153.941 210.895C152.282 209.101 151.004 206.825 150.107 204.065C149.211 201.306 148.559 198.333 148.151 195.145C147.798 191.85 147.578 188.826 147.491 186.073C147.486 183.293 147.514 181.31 147.577 180.123C147.863 177.967 148.242 176.094 148.713 174.505C149.157 172.836 149.907 171.829 150.962 171.487C151.692 171.249 152.312 171.362 152.821 171.825C153.385 172.18 153.799 172.763 154.063 173.575C154.59 175.198 154.684 177.006 154.345 179.001C153.98 180.914 153.67 182.72 153.414 184.418C152.872 188.273 152.536 191.657 152.406 194.57C152.357 197.457 152.965 200.849 154.231 204.744C155.048 207.26 155.885 209.007 156.741 209.985C157.679 210.937 158.634 211.254 159.608 210.938C160.907 210.516 162.171 209.298 163.4 207.283C164.604 205.187 165.689 202.591 166.657 199.495C167.625 196.399 168.324 193.166 168.755 189.796C169.041 187.64 169.428 186.482 169.914 186.324C170.239 186.219 170.507 186.491 170.718 187.14C171.008 188.033 171.065 189.45 170.888 191.391C170.766 193.225 170.495 195.153 170.075 197.174C169.736 199.168 169.319 200.784 168.824 202.021C168.024 204.255 166.956 206.352 165.619 208.312C164.282 210.272 162.599 211.581 160.57 212.24ZM191.187 205.791C188.59 206.635 186.206 206.064 184.036 204.077C181.891 202.172 180.358 199.799 179.435 196.959C178.565 194.281 178.101 191.336 178.045 188.124C177.988 184.912 178.147 181.675 178.523 178.413C178.98 175.124 179.556 172.066 180.252 169.237C178.976 170.28 177.689 171.012 176.39 171.434C175.741 171.645 175.146 171.749 174.607 171.745C174.067 171.74 173.622 171.751 173.271 171.775C173.181 172.881 172.978 174.741 172.662 177.356C172.426 179.945 172.149 182.682 171.83 185.567C171.566 188.345 171.305 190.717 171.048 192.685C170.646 195.867 169.958 197.615 168.984 197.932C168.497 198.09 168.148 197.845 167.937 197.195C167.779 196.708 167.771 195.993 167.913 195.05C168.646 190.954 169.27 186.937 169.785 183.001C170.382 179.039 170.856 175.251 171.207 171.638C170.913 171.285 170.58 170.81 170.206 170.213C169.807 169.536 169.475 168.791 169.211 167.98C168.921 167.087 168.699 166.127 168.545 165.101C168.446 163.966 168.441 162.847 168.53 161.741C168.589 161.094 168.772 160.137 169.078 158.871C169.358 157.524 169.759 156.272 170.28 155.116C170.776 153.878 171.388 153.141 172.119 152.903C173.498 152.455 174.426 152.961 174.9 154.422C175.348 155.802 175.416 157.529 175.104 159.605C174.872 161.654 174.561 163.595 174.169 165.427C173.751 167.178 173.661 168.418 173.898 169.149C174.109 169.798 174.539 170.017 175.188 169.806C176.081 169.516 177.032 168.714 178.04 167.399C179.103 165.977 179.909 164.728 180.457 163.653C180.731 163.115 181.182 162.296 181.811 161.194C182.414 160.011 183.121 159.288 183.932 159.024C184.744 158.761 185.351 158.833 185.752 159.24C186.235 159.622 186.582 160.137 186.793 160.787C187.03 161.517 187.009 162.556 186.729 163.903C186.422 165.169 185.994 166.474 185.444 167.82C184.976 169.138 184.576 170.255 184.245 171.17C183.663 173.244 183.063 175.816 182.446 178.888C181.829 181.959 181.481 185.168 181.401 188.514C181.296 191.778 181.678 194.749 182.548 197.428C183.128 199.213 184.181 200.935 185.707 202.592C187.232 204.25 188.766 204.828 190.308 204.327C191.688 203.879 192.911 202.674 193.978 200.712C195.127 198.724 196.061 196.491 196.782 194.014C197.583 191.511 198.208 189.154 198.657 186.945C199.187 184.709 199.536 183.16 199.704 182.298C199.735 181.839 199.86 181.26 200.082 180.56C200.277 179.779 200.658 179.296 201.226 179.111C201.713 178.953 202.036 179.117 202.194 179.604C202.326 180.01 202.362 180.537 202.303 181.184C202.299 181.724 202.282 182.223 202.251 182.681C202.075 184.623 201.762 186.698 201.314 188.908C200.865 191.117 200.543 192.612 200.349 193.394C199.819 195.629 198.721 198.05 197.055 200.655C195.497 203.314 193.541 205.027 191.187 205.791ZM216.698 196.56C215.643 196.903 214.754 196.788 214.029 196.216C213.413 195.699 212.999 195.115 212.788 194.466C212.366 193.168 212.499 191.644 213.187 189.895C213.434 189.276 213.792 188.442 214.258 187.394C214.699 186.263 215.002 185.402 215.168 184.81C213.639 183.692 211.783 182.814 209.602 182.177C207.421 181.54 205.175 180.565 202.865 179.252C200.769 178.049 198.798 176.401 196.952 174.309C195.079 172.136 193.774 169.913 193.036 167.641C192.165 164.963 191.944 162.209 192.37 159.378C192.796 156.548 193.612 153.95 194.817 151.585C196.132 149.004 197.782 146.763 199.766 144.862C201.724 142.88 203.961 141.48 206.477 140.663C208.181 140.109 209.977 139.974 211.864 140.259C213.75 140.543 214.997 141.618 215.604 143.485C216.316 145.676 216.185 146.93 215.211 147.246C214.805 147.378 214.389 147.065 213.963 146.306C213.75 145.926 213.578 145.534 213.446 145.128C213.288 144.641 213.182 144.316 213.129 144.154C212.866 143.343 212.276 142.771 211.361 142.441C210.42 142.029 209.503 141.968 208.61 142.258C206.744 142.864 204.911 144.267 203.114 146.466C201.316 148.665 199.962 150.989 199.053 153.438C198.171 155.968 197.664 158.69 197.534 161.603C197.378 164.436 197.682 167.029 198.447 169.382C199.396 172.304 200.863 174.609 202.847 176.297C204.831 177.985 206.979 179.351 209.292 180.394C211.686 181.41 213.864 182.452 215.826 183.52C216.266 182.389 216.76 181.287 217.308 180.212C217.937 179.11 218.538 178.197 219.11 177.473C219.627 176.856 220.008 176.508 220.251 176.429C220.495 176.35 220.656 176.432 220.735 176.675C220.867 177.081 220.66 177.687 220.114 178.492C220.005 178.707 219.676 179.352 219.128 180.428C218.635 181.395 218.046 182.619 217.36 184.098C218.246 184.617 219.024 185.217 219.694 185.897C220.363 186.576 220.856 187.403 221.173 188.377C221.595 189.676 221.299 191.252 220.287 193.106C219.274 194.961 218.078 196.112 216.698 196.56ZM216.969 192.838C217.538 192.654 217.894 191.955 218.038 190.741C218.289 189.583 218.257 188.517 217.941 187.543C217.782 187.056 217.556 186.636 217.262 186.283C216.968 185.93 216.767 185.726 216.66 185.671C216.274 186.694 215.955 187.784 215.704 188.943C215.507 189.994 215.527 190.884 215.764 191.615C216.081 192.589 216.483 192.996 216.969 192.838ZM248.547 201.958C247.736 202.222 246.712 201.972 245.477 201.207C244.349 200.496 243.129 199.367 241.819 197.819C239.652 195.293 237.798 192.486 236.256 189.398C234.741 186.391 233.456 183.264 232.401 180.018C231.241 176.447 230.35 172.878 229.73 169.312C229.109 165.745 228.635 162.489 228.306 159.545C228.079 157.466 227.894 155.238 227.75 152.862C227.606 150.486 227.567 148.57 227.632 147.113C227.171 147.353 226.492 147.887 225.595 148.717C224.699 149.547 223.761 150.39 222.783 151.246C221.886 152.076 221.032 152.622 220.221 152.886C219.003 153.282 218.171 152.79 217.722 151.41C217.485 150.68 217.517 149.951 217.82 149.225C218.203 148.472 218.748 147.802 219.454 147.213C220.84 145.956 222.454 144.848 224.296 143.89C226.112 142.852 227.279 142.024 227.796 141.407L228.351 132.344C228.412 131.427 228.558 129.944 228.789 127.895C229.076 125.738 229.444 123.42 229.895 120.941C230.426 118.436 230.984 116.146 231.566 114.073C232.037 112.484 232.559 111.193 233.134 110.199C233.681 109.123 234.442 108.427 235.416 108.111C236.877 107.636 237.792 107.967 238.161 109.103C238.372 109.753 238.404 110.819 238.258 112.302C238.193 113.759 237.814 115.766 237.12 118.324C236.369 121.26 235.577 124.209 234.745 127.171C233.968 130.026 233.433 132.936 233.141 135.902C233.165 136.253 233.134 136.847 233.046 137.683C233.014 138.411 232.943 138.883 232.833 139.098L235.149 137.941C235.772 137.649 236.489 137.371 237.301 137.108C238.086 136.763 238.966 136.432 239.94 136.116C241.319 135.668 242.644 135.327 243.914 135.094C245.239 134.753 246.36 134.613 247.277 134.674C247.736 134.704 248.167 134.789 248.57 134.927C249.029 134.957 249.285 135.053 249.337 135.216C249.443 135.54 248.441 136.045 246.33 136.731C245.113 137.127 243.434 137.896 241.294 139.041C239.234 140.158 236.929 141.625 234.379 143.441C233.131 144.295 232.382 145.166 232.133 146.055C231.883 146.943 231.801 148.899 231.886 151.922C232.092 156.7 232.49 161.237 233.078 165.532C233.639 169.746 234.39 173.988 235.329 178.259C235.511 179.097 235.707 179.976 235.916 180.895C236.206 181.788 236.523 182.761 236.865 183.816C237.762 186.576 238.942 189.378 240.404 192.222C241.948 195.041 243.603 197.374 245.37 199.222C245.772 199.63 246.16 199.997 246.536 200.324C246.992 200.624 247.45 200.79 247.908 200.82C248.556 200.879 248.932 201.071 249.037 201.396C249.116 201.639 248.953 201.827 248.547 201.958Z" fill="white"/>
<g filter="url(#filter12_d_92_3)">
<rect width="14" height="778" rx="1" transform="matrix(-1 0 0 1 18 74)" fill="#49464E"/>
</g>
<defs>
<filter id="filter0_d_92_3" x="29" y="70" width="524" height="785" filterUnits="userSpaceOnUse" color-interpolation-filters="sRGB">
<feFlood flood-opacity="0" result="BackgroundImageFix"/>
<feColorMatrix in="SourceAlpha" type="matrix" values="0 0 0 0 0 0 0 0 0 0 0 0 0 0 0 0 0 0 127 0" result="hardAlpha"/>
<feOffset dx="12"/>
<feGaussianBlur stdDeviation="2"/>
<feComposite in2="hardAlpha" operator="out"/>
<feColorMatrix type="matrix" values="0 0 0 0 0 0 0 0 0 0 0 0 0 0 0 0 0 0 0.25 0"/>
<feBlend mode="normal" in2="BackgroundImageFix" result="effect1_dropShadow_92_3"/>
<feBlend mode="normal" in="SourceGraphic" in2="effect1_dropShadow_92_3" result="shape"/>
</filter>
<filter id="filter1_d_92_3" x="523.225" y="73" width="15.7751" height="784" filterUnits="userSpaceOnUse" color-interpolation-filters="sRGB">
<feFlood flood-opacity="0" result="BackgroundImageFix"/>
<feColorMatrix in="SourceAlpha" type="matrix" values="0 0 0 0 0 0 0 0 0 0 0 0 0 0 0 0 0 0 127 0" result="hardAlpha"/>
<feOffset dx="3" dy="2"/>
<feGaussianBlur stdDeviation="2"/>
<feComposite in2="hardAlpha" operator="out"/>
<feColorMatrix type="matrix" values="0 0 0 0 0 0 0 0 0 0 0 0 0 0 0 0 0 0 0.25 0"/>
<feBlend mode="normal" in2="BackgroundImageFix" result="effect1_dropShadow_92_3"/>
<feBlend mode="normal" in="SourceGraphic" in2="effect1_dropShadow_92_3" result="shape"/>
</filter>
<filter id="filter2_d_92_3" x="528.161" y="73" width="15.8394" height="784" filterUnits="userSpaceOnUse" color-interpolation-filters="sRGB">
<feFlood flood-opacity="0" result="BackgroundImageFix"/>
<feColorMatrix in="SourceAlpha" type="matrix" values="0 0 0 0 0 0 0 0 0 0 0 0 0 0 0 0 0 0 127 0" result="hardAlpha"/>
<feOffset dx="3" dy="2"/>
<feGaussianBlur stdDeviation="2"/>
<feComposite in2="hardAlpha" operator="out"/>
<feColorMatrix type="matrix" values="0 0 0 0 0 0 0 0 0 0 0 0 0 0 0 0 0 0 0.25 0"/>
<feBlend mode="normal" in2="BackgroundImageFix" result="effect1_dropShadow_92_3"/>
<feBlend mode="normal" in="SourceGraphic" in2="effect1_dropShadow_92_3" result="shape"/>
</filter>
<filter id="filter3_d_92_3" x="523.129" y="72" width="15.8715" height="785" filterUnits="userSpaceOnUse" color-interpolation-filters="sRGB">
<feFlood flood-opacity="0" result="BackgroundImageFix"/>
<feColorMatrix in="SourceAlpha" type="matrix" values="0 0 0 0 0 0 0 0 0 0 0 0 0 0 0 0 0 0 127 0" result="hardAlpha"/>
<feOffset dx="3" dy="2"/>
<feGaussianBlur stdDeviation="2"/>
<feComposite in2="hardAlpha" operator="out"/>
<feColorMatrix type="matrix" values="0 0 0 0 0 0 0 0 0 0 0 0 0 0 0 0 0 0 0.25 0"/>
<feBlend mode="normal" in2="BackgroundImageFix" result="effect1_dropShadow_92_3"/>
<feBlend mode="normal" in="SourceGraphic" in2="effect1_dropShadow_92_3" result="shape"/>
</filter>
<filter id="filter4_d_92_3" x="27" y="70" width="506" height="785" filterUnits="userSpaceOnUse" color-interpolation-filters="sRGB">
<feFlood flood-opacity="0" result="BackgroundImageFix"/>
<feColorMatrix in="SourceAlpha" type="matrix" values="0 0 0 0 0 0 0 0 0 0 0 0 0 0 0 0 0 0 127 0" result="hardAlpha"/>
<feOffset dx="2"/>
<feGaussianBlur stdDeviation="2"/>
<feComposite in2="hardAlpha" operator="out"/>
<feColorMatrix type="matrix" values="0 0 0 0 0 0 0 0 0 0 0 0 0 0 0 0 0 0 0.25 0"/>
<feBlend mode="normal" in2="BackgroundImageFix" result="effect1_dropShadow_92_3"/>
<feBlend mode="normal" in="SourceGraphic" in2="effect1_dropShadow_92_3" result="shape"/>
</filter>
<filter id="filter5_d_92_3" x="518" y="72" width="16" height="785" filterUnits="userSpaceOnUse" color-interpolation-filters="sRGB">
<feFlood flood-opacity="0" result="BackgroundImageFix"/>
<feColorMatrix in="SourceAlpha" type="matrix" values="0 0 0 0 0 0 0 0 0 0 0 0 0 0 0 0 0 0 127 0" result="hardAlpha"/>
<feOffset dx="3" dy="2"/>
<feGaussianBlur stdDeviation="2"/>
<feComposite in2="hardAlpha" operator="out"/>
<feColorMatrix type="matrix" values="0 0 0 0 0 0 0 0 0 0 0 0 0 0 0 0 0 0 0.25 0"/>
<feBlend mode="normal" in2="BackgroundImageFix" result="effect1_dropShadow_92_3"/>
<feBlend mode="normal" in="SourceGraphic" in2="effect1_dropShadow_92_3" result="shape"/>
</filter>
<filter id="filter6_d_92_3" x="516.225" y="73" width="15.7751" height="784" filterUnits="userSpaceOnUse" color-interpolation-filters="sRGB">
<feFlood flood-opacity="0" result="BackgroundImageFix"/>
<feColorMatrix in="SourceAlpha" type="matrix" values="0 0 0 0 0 0 0 0 0 0 0 0 0 0 0 0 0 0 127 0" result="hardAlpha"/>
<feOffset dx="3" dy="2"/>
<feGaussianBlur stdDeviation="2"/>
<feComposite in2="hardAlpha" operator="out"/>
<feColorMatrix type="matrix" values="0 0 0 0 0 0 0 0 0 0 0 0 0 0 0 0 0 0 0.25 0"/>
<feBlend mode="normal" in2="BackgroundImageFix" result="effect1_dropShadow_92_3"/>
<feBlend mode="normal" in="SourceGraphic" in2="effect1_dropShadow_92_3" result="shape"/>
</filter>
<filter id="filter7_d_92_3" x="521.161" y="73" width="15.8394" height="784" filterUnits="userSpaceOnUse" color-interpolation-filters="sRGB">
<feFlood flood-opacity="0" result="BackgroundImageFix"/>
<feColorMatrix in="SourceAlpha" type="matrix" values="0 0 0 0 0 0 0 0 0 0 0 0 0 0 0 0 0 0 127 0" result="hardAlpha"/>
<feOffset dx="3" dy="2"/>
<feGaussianBlur stdDeviation="2"/>
<feComposite in2="hardAlpha" operator="out"/>
<feColorMatrix type="matrix" values="0 0 0 0 0 0 0 0 0 0 0 0 0 0 0 0 0 0 0.25 0"/>
<feBlend mode="normal" in2="BackgroundImageFix" result="effect1_dropShadow_92_3"/>
<feBlend mode="normal" in="SourceGraphic" in2="effect1_dropShadow_92_3" result="shape"/>
</filter>
<filter id="filter8_d_92_3" x="516.129" y="72" width="15.8715" height="785" filterUnits="userSpaceOnUse" color-interpolation-filters="sRGB">
<feFlood flood-opacity="0" result="BackgroundImageFix"/>
<feColorMatrix in="SourceAlpha" type="matrix" values="0 0 0 0 0 0 0 0 0 0 0 0 0 0 0 0 0 0 127 0" result="hardAlpha"/>
<feOffset dx="3" dy="2"/>
<feGaussianBlur stdDeviation="2"/>
<feComposite in2="hardAlpha" operator="out"/>
<feColorMatrix type="matrix" values="0 0 0 0 0 0 0 0 0 0 0 0 0 0 0 0 0 0 0.25 0"/>
<feBlend mode="normal" in2="BackgroundImageFix" result="effect1_dropShadow_92_3"/>
<feBlend mode="normal" in="SourceGraphic" in2="effect1_dropShadow_92_3" result="shape"/>
</filter>
<filter id="filter9_d_92_3" x="20" y="70" width="506" height="785" filterUnits="userSpaceOnUse" color-interpolation-filters="sRGB">
<feFlood flood-opacity="0" result="BackgroundImageFix"/>
<feColorMatrix in="SourceAlpha" type="matrix" values="0 0 0 0 0 0 0 0 0 0 0 0 0 0 0 0 0 0 127 0" result="hardAlpha"/>
<feOffset dx="2"/>
<feGaussianBlur stdDeviation="2"/>
<feComposite in2="hardAlpha" operator="out"/>
<feColorMatrix type="matrix" values="0 0 0 0 0 0 0 0 0 0 0 0 0 0 0 0 0 0 0.25 0"/>
<feBlend mode="normal" in2="BackgroundImageFix" result="effect1_dropShadow_92_3"/>
<feBlend mode="normal" in="SourceGraphic" in2="effect1_dropShadow_92_3" result="shape"/>
</filter>
<filter id="filter10_d_92_3" x="511" y="72" width="16" height="785" filterUnits="userSpaceOnUse" color-interpolation-filters="sRGB">
<feFlood flood-opacity="0" result="BackgroundImageFix"/>
<feColorMatrix in="SourceAlpha" type="matrix" values="0 0 0 0 0 0 0 0 0 0 0 0 0 0 0 0 0 0 127 0" result="hardAlpha"/>
<feOffset dx="3" dy="2"/>
<feGaussianBlur stdDeviation="2"/>
<feComposite in2="hardAlpha" operator="out"/>
<feColorMatrix type="matrix" values="0 0 0 0 0 0 0 0 0 0 0 0 0 0 0 0 0 0 0.25 0"/>
<feBlend mode="normal" in2="BackgroundImageFix" result="effect1_dropShadow_92_3"/>
<feBlend mode="normal" in="SourceGraphic" in2="effect1_dropShadow_92_3" result="shape"/>
</filter>
<filter id="filter11_d_92_3" x="11" y="72" width="513" height="786" filterUnits="userSpaceOnUse" color-interpolation-filters="sRGB">
<feFlood flood-opacity="0" result="BackgroundImageFix"/>
<feColorMatrix in="SourceAlpha" type="matrix" values="0 0 0 0 0 0 0 0 0 0 0 0 0 0 0 0 0 0 127 0" result="hardAlpha"/>
<feOffset dx="2" dy="2"/>
<feGaussianBlur stdDeviation="2"/>
<feComposite in2="hardAlpha" operator="out"/>
<feColorMatrix type="matrix" values="0 0 0 0 0 0 0 0 0 0 0 0 0 0 0 0 0 0 0.25 0"/>
<feBlend mode="normal" in2="BackgroundImageFix" result="effect1_dropShadow_92_3"/>
<feBlend mode="normal" in="SourceGraphic" in2="effect1_dropShadow_92_3" result="shape"/>
</filter>
<filter id="filter12_d_92_3" x="0" y="74" width="22" height="786" filterUnits="userSpaceOnUse" color-interpolation-filters="sRGB">
<feFlood flood-opacity="0" result="BackgroundImageFix"/>
<feColorMatrix in="SourceAlpha" type="matrix" values="0 0 0 0 0 0 0 0 0 0 0 0 0 0 0 0 0 0 127 0" result="hardAlpha"/>
<feOffset dy="4"/>
<feGaussianBlur stdDeviation="2"/>
<feComposite in2="hardAlpha" operator="out"/>
<feColorMatrix type="matrix" values="0 0 0 0 0 0 0 0 0 0 0 0 0 0 0 0 0 0 0.25 0"/>
<feBlend mode="normal" in2="BackgroundImageFix" result="effect1_dropShadow_92_3"/>
<feBlend mode="normal" in="SourceGraphic" in2="effect1_dropShadow_92_3" result="shape"/>
</filter>
</defs>
</svg>
